<svg width="84" height="37" viewBox="0 0 84 37" fill="none" xmlns="http://www.w3.org/2000/svg">
<path d="M19.088 0.267999C20.456 0.267999 21.584 0.531999 22.472 1.06C23.36 1.564 24.08 2.392 24.632 3.544C25.184 4.672 25.46 5.98 25.46 7.468C25.484 8.932 25.232 10.684 24.704 12.724C23.432 17.788 21.392 21.676 18.584 24.388C17.192 25.732 15.944 26.632 14.84 27.088C13.76 27.544 12.656 27.616 11.528 27.304C11.168 27.208 10.796 27.04 10.412 26.8C10.028 26.584 9.656 26.332 9.296 26.044C8.96 25.756 8.648 25.432 8.36 25.072C8.096 24.736 7.88 24.4 7.712 24.064C7.544 23.728 7.436 23.56 7.388 23.56C7.364 23.56 7.328 23.608 7.28 23.704C7.232 23.8 7.148 23.992 7.028 24.28C6.908 24.568 6.74 24.988 6.524 25.54C6.308 26.092 6.032 26.836 5.696 27.772C5.312 28.78 4.988 29.62 4.724 30.292C4.484 30.988 4.268 31.564 4.076 32.02C3.884 32.5 3.716 32.884 3.572 33.172C3.428 33.484 3.284 33.76 3.14 34C2.228 35.632 1.568 36.208 1.16 35.728C1.112 35.68 1.04 35.62 0.944 35.548C0.872 35.476 0.8 35.404 0.728 35.332C0.536 35.212 0.368 34.972 0.224 34.612C0.104 34.276 0.044 33.94 0.044 33.604C0.044 33.052 0.272 32.044 0.728 30.58C1.208 29.14 1.88 27.364 2.744 25.252C3.056 24.508 3.356 23.812 3.644 23.164C3.932 22.492 4.256 21.76 4.616 20.968C5 20.176 5.444 19.276 5.948 18.268C6.452 17.26 7.064 16.024 7.784 14.56C8.432 13.264 9.032 12.04 9.584 10.888C10.136 9.736 10.604 8.74 10.988 7.9C11.396 7.036 11.708 6.364 11.924 5.884C12.164 5.38 12.272 5.116 12.248 5.092C12.224 5.068 12.092 5.152 11.852 5.344C11.636 5.512 11.36 5.74 11.024 6.028C10.712 6.316 10.376 6.628 10.016 6.964C9.656 7.3 9.332 7.612 9.044 7.9C8.444 8.524 7.88 9.148 7.352 9.772C6.848 10.396 6.464 10.924 6.2 11.356C5.912 11.788 5.636 12.268 5.372 12.796C5.132 13.3 4.916 13.804 4.724 14.308C4.532 14.788 4.376 15.244 4.256 15.676C4.16 16.084 4.112 16.432 4.112 16.72C4.112 17.008 4.136 17.2 4.184 17.296C4.232 17.392 4.352 17.5 4.544 17.62C5.168 18.028 5.324 18.352 5.012 18.592C4.7 18.808 4.34 18.82 3.932 18.628C3.524 18.436 3.188 18.076 2.924 17.548C2.852 17.404 2.792 17.284 2.744 17.188C2.696 17.092 2.66 16.984 2.636 16.864C2.636 16.72 2.636 16.552 2.636 16.36C2.636 16.168 2.648 15.928 2.672 15.64C2.72 14.68 2.936 13.66 3.32 12.58C3.704 11.5 4.208 10.42 4.832 9.34C5.48 8.26 6.236 7.216 7.1 6.208C7.988 5.2 8.936 4.288 9.944 3.472C11.264 2.44 12.704 1.648 14.264 1.096C15.824 0.543999 17.432 0.267999 19.088 0.267999ZM22.904 9.376C22.976 9.088 23.024 8.836 23.048 8.62C23.096 8.38 23.12 8.152 23.12 7.936C23.144 7.696 23.156 7.444 23.156 7.18C23.156 6.916 23.156 6.616 23.156 6.28C23.132 5.752 23.096 5.332 23.048 5.02C23.024 4.684 22.964 4.42 22.868 4.228C22.796 4.012 22.676 3.844 22.508 3.724C22.364 3.604 22.172 3.484 21.932 3.364C21.5 3.148 20.972 3.004 20.348 2.932C19.724 2.86 19.052 2.86 18.332 2.932C17.612 3.004 16.868 3.148 16.1 3.364C15.332 3.556 14.588 3.82 13.868 4.156C13.604 4.276 13.352 4.408 13.112 4.552C12.872 4.672 12.716 4.756 12.644 4.804C12.524 4.924 12.452 4.996 12.428 5.02C12.428 5.02 12.488 5.02 12.608 5.02C12.68 5.02 12.776 5.068 12.896 5.164C13.016 5.26 13.124 5.368 13.22 5.488C13.34 5.608 13.448 5.74 13.544 5.884C13.64 6.004 13.7 6.112 13.724 6.208C13.772 6.304 13.772 6.472 13.724 6.712C13.7 6.952 13.652 7.204 13.58 7.468C13.508 7.756 13.34 8.26 13.076 8.98C12.836 9.676 12.524 10.504 12.14 11.464C11.78 12.424 11.372 13.468 10.916 14.596C10.484 15.724 10.04 16.84 9.584 17.944L8.216 21.256L8.432 22.084C8.792 23.596 9.464 24.556 10.448 24.964C10.616 25.036 10.82 25.084 11.06 25.108C11.3 25.156 11.552 25.168 11.816 25.144C12.104 25.144 12.368 25.12 12.608 25.072C12.872 25.048 13.1 25 13.292 24.928C13.796 24.712 14.336 24.388 14.912 23.956C15.488 23.5 16.052 22.984 16.604 22.408C17.18 21.808 17.732 21.148 18.26 20.428C18.788 19.708 19.28 18.952 19.736 18.16C20.048 17.608 20.36 16.984 20.672 16.288C20.984 15.568 21.272 14.824 21.536 14.056C21.824 13.288 22.088 12.508 22.328 11.716C22.568 10.924 22.76 10.144 22.904 9.376ZM32.345 20.068C32.609 20.332 31.721 21.64 29.681 23.992C28.745 25.096 27.821 26.008 26.909 26.728C26.021 27.448 25.301 27.844 24.749 27.916C24.485 27.964 24.293 27.964 24.173 27.916C24.077 27.892 23.897 27.76 23.633 27.52C23.081 27.016 22.745 26.332 22.625 25.468C22.505 24.628 22.613 23.668 22.949 22.588C23.117 22.036 23.309 21.46 23.525 20.86C23.765 20.26 24.005 19.696 24.245 19.168C24.485 18.64 24.713 18.172 24.929 17.764C25.145 17.332 25.325 17.02 25.469 16.828C25.589 16.66 25.685 16.576 25.757 16.576C25.829 16.552 25.973 16.6 26.189 16.72C26.525 16.888 26.741 17.068 26.837 17.26C26.933 17.452 26.945 17.74 26.873 18.124C26.825 18.316 26.681 18.796 26.441 19.564C26.201 20.308 25.937 21.136 25.649 22.048C25.361 22.96 25.097 23.8 24.857 24.568C24.641 25.312 24.521 25.78 24.497 25.972C24.449 26.284 24.437 26.464 24.461 26.512C24.485 26.584 24.557 26.62 24.677 26.62C24.773 26.62 24.941 26.572 25.181 26.476C25.421 26.38 25.685 26.248 25.973 26.08C26.261 25.912 26.549 25.72 26.837 25.504C27.149 25.312 27.437 25.12 27.701 24.928C27.989 24.688 28.301 24.4 28.637 24.064C28.997 23.728 29.345 23.38 29.681 23.02C30.041 22.66 30.377 22.3 30.689 21.94C31.001 21.556 31.277 21.208 31.517 20.896C31.997 20.272 32.273 19.996 32.345 20.068ZM27.233 14.668C26.633 14.02 26.417 13.336 26.585 12.616C26.705 12.136 26.897 11.836 27.161 11.716C27.425 11.596 27.797 11.632 28.277 11.824C29.141 12.16 29.633 12.592 29.753 13.12C29.897 13.648 29.633 14.2 28.961 14.776C28.625 15.064 28.337 15.208 28.097 15.208C27.857 15.184 27.569 15.004 27.233 14.668ZM40.7383 18.052C40.8583 18.052 40.9543 18.136 41.0263 18.304C41.0983 18.448 41.1103 18.592 41.0623 18.736C41.0143 18.88 40.8703 19.156 40.6303 19.564C40.3903 19.948 40.1023 20.368 39.7663 20.824C39.4543 21.28 39.1303 21.712 38.7943 22.12C38.4823 22.528 38.2303 22.84 38.0383 23.056C37.5103 23.584 36.8863 24.124 36.1663 24.676C35.4703 25.228 34.7503 25.624 34.0063 25.864C33.2863 26.104 32.5903 26.116 31.9183 25.9C31.2703 25.684 30.7423 25.084 30.3343 24.1C30.1663 23.716 30.0583 23.2 30.0103 22.552C29.9623 21.88 29.9983 21.28 30.1183 20.752C30.2623 20.08 30.5383 19.348 30.9463 18.556C31.3543 17.764 31.8223 17.02 32.3503 16.324C32.8783 15.628 33.4183 15.028 33.9703 14.524C34.5463 13.996 35.0743 13.672 35.5543 13.552C35.8183 13.504 36.0223 13.48 36.1663 13.48C36.3103 13.48 36.4783 13.528 36.6703 13.624C38.0383 14.224 38.4583 15.184 37.9303 16.504C37.6903 17.056 37.5103 17.332 37.3903 17.332C37.2703 17.308 37.2703 17.008 37.3903 16.432C37.4383 16.144 37.4503 15.94 37.4263 15.82C37.4263 15.676 37.3783 15.532 37.2823 15.388C37.0903 15.076 36.8503 14.968 36.5623 15.064C36.2983 15.136 35.9263 15.448 35.4463 16C34.9423 16.528 34.4623 17.152 34.0063 17.872C33.5743 18.568 33.2023 19.276 32.8903 19.996C32.5783 20.716 32.3503 21.412 32.2063 22.084C32.0623 22.732 32.0263 23.272 32.0983 23.704C32.1463 23.92 32.1943 24.052 32.2423 24.1C32.3143 24.148 32.4583 24.172 32.6743 24.172C32.7943 24.172 32.9743 24.148 33.2143 24.1C33.4543 24.052 33.6823 23.992 33.8983 23.92C34.9543 23.536 35.9863 22.948 36.9943 22.156C38.0023 21.364 38.9263 20.392 39.7663 19.24C40.0063 18.904 40.2103 18.628 40.3783 18.412C40.5703 18.172 40.6903 18.052 40.7383 18.052ZM48.0146 19.42C48.1586 19.492 48.2306 19.588 48.2306 19.708C48.2306 19.804 47.9426 20.032 47.3666 20.392C46.7906 20.728 45.9626 21.172 44.8826 21.724C44.3546 21.988 43.8866 22.24 43.4786 22.48C43.0946 22.696 42.8786 22.828 42.8306 22.876C42.7586 22.924 42.7586 23.056 42.8306 23.272C42.9266 23.464 43.1426 23.836 43.4786 24.388C44.0546 25.372 44.3906 26.188 44.4866 26.836C44.6066 27.484 44.4986 28.132 44.1626 28.78C43.8266 29.428 43.2866 29.896 42.5426 30.184C41.7986 30.472 41.0306 30.592 40.2386 30.544C39.4466 30.52 38.7146 30.34 38.0426 30.004C37.3466 29.668 36.8906 29.188 36.6746 28.564C36.4586 27.964 36.5786 27.232 37.0346 26.368C37.4666 25.504 38.4026 24.532 39.8426 23.452C40.2506 23.164 40.4906 22.984 40.5626 22.912C40.5866 22.888 40.5746 22.816 40.5266 22.696C40.4786 22.552 40.4066 22.384 40.3106 22.192C39.7826 21.136 39.4826 20.164 39.4106 19.276C39.3386 18.388 39.4946 17.404 39.8786 16.324C39.9986 15.916 40.1426 15.52 40.3106 15.136C40.4786 14.752 40.6106 14.488 40.7066 14.344C40.9226 14.008 41.1746 13.684 41.4626 13.372C41.7506 13.06 42.0386 12.784 42.3266 12.544C42.6146 12.304 42.8906 12.124 43.1546 12.004C43.4186 11.86 43.6346 11.8 43.8026 11.824C44.0426 11.848 44.2226 11.764 44.3426 11.572C44.4146 11.428 44.4746 11.356 44.5226 11.356C44.5946 11.332 44.7386 11.368 44.9546 11.464L45.4226 11.644L45.3146 12.724C45.2906 13.012 45.2426 13.372 45.1706 13.804C45.1226 14.212 45.0746 14.584 45.0266 14.92C44.9786 15.256 44.9306 15.592 44.8826 15.928C44.8586 16.264 44.8466 16.528 44.8466 16.72C44.8466 17.392 44.6186 17.572 44.1626 17.26C43.9706 17.092 43.8266 16.78 43.7306 16.324C43.6586 15.844 43.6466 15.292 43.6946 14.668L43.7666 13.768L43.1906 14.38C42.8786 14.716 42.5906 15.124 42.3266 15.604C42.0866 16.06 41.8826 16.552 41.7146 17.08C41.5466 17.608 41.4266 18.124 41.3546 18.628C41.3066 19.132 41.3186 19.576 41.3906 19.96C41.4386 20.176 41.4986 20.428 41.5706 20.716C41.6666 20.98 41.7506 21.196 41.8226 21.364L42.0746 21.976L43.6226 21.22C45.0866 20.476 46.1546 19.972 46.8266 19.708C47.4986 19.42 47.8946 19.324 48.0146 19.42ZM40.3466 29.068C41.6906 28.804 42.3626 28.024 42.3626 26.728C42.3626 26.44 42.3266 26.176 42.2546 25.936C42.1826 25.72 42.0506 25.408 41.8586 25C41.7146 24.736 41.5826 24.496 41.4626 24.28C41.3426 24.064 41.2586 23.956 41.2106 23.956C41.1626 23.932 41.0186 24.004 40.7786 24.172C40.5626 24.316 40.3106 24.496 40.0226 24.712C39.0386 25.504 38.3666 26.284 38.0066 27.052C37.6226 27.82 37.6346 28.396 38.0426 28.78C38.1866 28.9 38.3546 28.984 38.5466 29.032C38.7386 29.104 39.0266 29.164 39.4106 29.212C39.4586 29.212 39.5786 29.2 39.7706 29.176C39.9626 29.152 40.1546 29.116 40.3466 29.068ZM60.9507 20.176C61.1667 20.368 61.1667 20.524 60.9507 20.644C60.7347 20.764 60.2067 20.92 59.3667 21.112C58.9587 21.208 58.5267 21.316 58.0707 21.436C57.6147 21.556 57.2667 21.652 57.0267 21.724L56.1987 22.012L55.6227 23.128C55.2147 23.92 54.8067 24.616 54.3987 25.216C53.9907 25.84 53.5347 26.392 53.0307 26.872C52.7667 27.136 52.5387 27.34 52.3467 27.484C52.1787 27.652 52.0227 27.784 51.8787 27.88C51.7347 27.976 51.5907 28.048 51.4467 28.096C51.3027 28.168 51.1227 28.24 50.9067 28.312C50.5707 28.432 50.2827 28.48 50.0427 28.456C49.8027 28.456 49.4787 28.372 49.0707 28.204C48.9747 28.156 48.8907 28.204 48.8187 28.348C48.7707 28.516 48.6867 28.876 48.5667 29.428C48.0867 31.588 47.6667 33.292 47.3067 34.54C46.9467 35.812 46.6467 36.556 46.4067 36.772C46.2867 36.868 46.1907 36.904 46.1187 36.88C46.0467 36.88 45.9027 36.796 45.6867 36.628C45.3507 36.412 45.1587 36.232 45.1107 36.088C45.0387 35.92 45.0507 35.476 45.1467 34.756C45.2427 34.06 45.3987 33.208 45.6147 32.2C45.8307 31.192 46.0827 30.088 46.3707 28.888C46.6587 27.712 46.9707 26.56 47.3067 25.432L47.7747 23.776L47.3427 23.416C46.3587 22.576 46.2147 21.448 46.9107 20.032C47.1747 19.528 47.5707 18.976 48.0987 18.376C48.6507 17.776 49.1667 17.308 49.6467 16.972C49.9587 16.756 50.1627 16.576 50.2587 16.432C50.3787 16.264 50.4987 15.964 50.6187 15.532C50.7867 14.932 50.8947 14.596 50.9427 14.524C51.0147 14.428 51.1467 14.428 51.3387 14.524C51.7467 14.74 51.9507 15.04 51.9507 15.424C51.9507 15.664 52.0827 15.736 52.3467 15.64C52.9467 15.472 53.5347 15.52 54.1107 15.784C54.6867 16.024 55.1787 16.432 55.5867 17.008C55.8507 17.416 56.0427 17.8 56.1627 18.16C56.2827 18.52 56.3667 19.012 56.4147 19.636L56.4867 20.608L57.2067 20.428C57.3987 20.38 57.6987 20.332 58.1067 20.284C58.5147 20.212 58.9107 20.152 59.2947 20.104C59.6067 20.08 59.8587 20.056 60.0507 20.032C60.2667 20.008 60.4227 19.996 60.5187 19.996C60.6387 19.996 60.7227 20.02 60.7707 20.068C60.8427 20.092 60.9027 20.128 60.9507 20.176ZM48.7467 21.076C48.9147 20.572 49.0587 20.14 49.1787 19.78C49.2987 19.396 49.3467 19.192 49.3227 19.168C49.2987 19.144 49.1187 19.3 48.7827 19.636C48.4467 19.972 48.1587 20.368 47.9187 20.824C47.7027 21.28 47.5947 21.664 47.5947 21.976C47.5947 22.216 47.6307 22.444 47.7027 22.66C47.7987 22.852 47.8947 22.948 47.9907 22.948C48.0147 22.948 48.0987 22.768 48.2427 22.408C48.3867 22.048 48.5547 21.604 48.7467 21.076ZM51.5547 25.072C51.8187 24.76 52.0347 24.496 52.2027 24.28C52.3707 24.064 52.4427 23.944 52.4187 23.92C52.3707 23.896 52.2027 23.98 51.9147 24.172C51.6507 24.34 51.3387 24.556 50.9787 24.82C50.6427 25.084 50.3187 25.348 50.0067 25.612C49.7187 25.9 49.5387 26.104 49.4667 26.224C49.2747 26.56 49.2147 26.74 49.2867 26.764C49.3587 26.812 49.5747 26.74 49.9347 26.548C50.1747 26.428 50.4267 26.236 50.6907 25.972C50.9787 25.708 51.2667 25.408 51.5547 25.072ZM54.0387 21.076C54.1827 20.764 54.2907 20.416 54.3627 20.032C54.4587 19.624 54.5067 19.24 54.5067 18.88C54.5307 18.52 54.5067 18.196 54.4347 17.908C54.3867 17.62 54.3027 17.416 54.1827 17.296C54.1107 17.224 53.9787 17.176 53.7867 17.152C53.6187 17.128 53.4267 17.128 53.2107 17.152C52.9947 17.152 52.7787 17.176 52.5627 17.224C52.3467 17.272 52.1667 17.332 52.0227 17.404C51.9267 17.452 51.8427 17.512 51.7707 17.584C51.6987 17.656 51.6267 17.8 51.5547 18.016C51.4827 18.208 51.3867 18.508 51.2667 18.916C51.1467 19.3 51.0027 19.84 50.8347 20.536C50.6187 21.328 50.4267 22.036 50.2587 22.66C50.0907 23.284 49.9947 23.62 49.9707 23.668C49.9467 23.74 49.9347 23.8 49.9347 23.848C49.9347 23.872 49.9707 23.872 50.0427 23.848C50.1147 23.8 50.2347 23.728 50.4027 23.632C50.5707 23.536 50.8227 23.38 51.1587 23.164C51.3987 22.996 51.6867 22.816 52.0227 22.624C52.3587 22.432 52.6467 22.276 52.8867 22.156C53.2707 21.964 53.5227 21.808 53.6427 21.688C53.7867 21.544 53.9187 21.34 54.0387 21.076ZM68.345 20.068C68.609 20.332 67.721 21.64 65.681 23.992C64.745 25.096 63.821 26.008 62.909 26.728C62.021 27.448 61.301 27.844 60.749 27.916C60.485 27.964 60.293 27.964 60.173 27.916C60.077 27.892 59.897 27.76 59.633 27.52C59.081 27.016 58.745 26.332 58.625 25.468C58.505 24.628 58.613 23.668 58.949 22.588C59.117 22.036 59.309 21.46 59.525 20.86C59.765 20.26 60.005 19.696 60.245 19.168C60.485 18.64 60.713 18.172 60.929 17.764C61.145 17.332 61.325 17.02 61.469 16.828C61.589 16.66 61.685 16.576 61.757 16.576C61.829 16.552 61.973 16.6 62.189 16.72C62.525 16.888 62.741 17.068 62.837 17.26C62.933 17.452 62.945 17.74 62.873 18.124C62.825 18.316 62.681 18.796 62.441 19.564C62.201 20.308 61.937 21.136 61.649 22.048C61.361 22.96 61.097 23.8 60.857 24.568C60.641 25.312 60.521 25.78 60.497 25.972C60.449 26.284 60.437 26.464 60.461 26.512C60.485 26.584 60.557 26.62 60.677 26.62C60.773 26.62 60.941 26.572 61.181 26.476C61.421 26.38 61.685 26.248 61.973 26.08C62.261 25.912 62.549 25.72 62.837 25.504C63.149 25.312 63.437 25.12 63.701 24.928C63.989 24.688 64.301 24.4 64.637 24.064C64.997 23.728 65.345 23.38 65.681 23.02C66.041 22.66 66.377 22.3 66.689 21.94C67.001 21.556 67.277 21.208 67.517 20.896C67.997 20.272 68.273 19.996 68.345 20.068ZM63.233 14.668C62.633 14.02 62.417 13.336 62.585 12.616C62.705 12.136 62.897 11.836 63.161 11.716C63.425 11.596 63.797 11.632 64.277 11.824C65.141 12.16 65.633 12.592 65.753 13.12C65.897 13.648 65.633 14.2 64.961 14.776C64.625 15.064 64.337 15.208 64.097 15.208C63.857 15.184 63.569 15.004 63.233 14.668ZM75.3343 19.024C75.7183 19.024 75.8743 19.252 75.8023 19.708C75.7303 20.14 75.4183 20.896 74.8663 21.976C73.2343 25.192 71.7223 27.124 70.3303 27.772C69.9223 27.988 69.5863 28.096 69.3223 28.096C69.0583 28.12 68.7583 28.036 68.4223 27.844C67.1983 27.244 66.5863 26.008 66.5863 24.136C66.5863 23.104 66.7543 21.808 67.0903 20.248C67.4263 18.688 67.9423 16.9 68.6383 14.884C68.9023 14.092 69.1423 13.396 69.3583 12.796C69.5983 12.172 69.8383 11.596 70.0783 11.068C70.3183 10.516 70.5583 10 70.7983 9.52C71.0623 9.016 71.3623 8.5 71.6983 7.972C72.3463 6.892 72.8023 6.196 73.0663 5.884C73.3543 5.548 73.5943 5.404 73.7863 5.452C74.0263 5.548 74.2663 5.716 74.5063 5.956C74.7463 6.172 74.8663 6.376 74.8663 6.568C74.8663 6.64 74.7583 6.928 74.5423 7.432C74.3503 7.912 74.0983 8.452 73.7863 9.052C73.3783 9.844 73.0303 10.564 72.7423 11.212C72.4543 11.86 72.1783 12.484 71.9143 13.084C71.6743 13.684 71.4463 14.284 71.2303 14.884C71.0143 15.484 70.7863 16.132 70.5463 16.828C68.7223 22.42 68.1463 25.672 68.8183 26.584C68.8903 26.704 68.9623 26.752 69.0343 26.728C69.1303 26.728 69.3103 26.656 69.5743 26.512C69.9343 26.344 70.3183 26.056 70.7263 25.648C71.1583 25.264 71.5903 24.808 72.0223 24.28C72.4783 23.728 72.9103 23.128 73.3183 22.48C73.7503 21.808 74.1463 21.112 74.5063 20.392C74.6983 20.008 74.8663 19.684 75.0103 19.42C75.1783 19.156 75.2863 19.024 75.3343 19.024ZM83.6883 19.132C83.8563 19.252 83.9043 19.396 83.8323 19.564C83.7843 19.732 83.5803 20.092 83.2203 20.644C82.7163 21.436 82.1163 22.132 81.4203 22.732C80.7483 23.332 80.0523 23.812 79.3323 24.172C78.6363 24.532 77.9523 24.76 77.2803 24.856C76.6083 24.928 76.0083 24.832 75.4803 24.568C75.0963 24.376 74.7243 24.076 74.3643 23.668C74.0043 23.236 73.7523 22.804 73.6083 22.372C73.4403 21.892 73.3803 21.304 73.4283 20.608C73.4763 19.888 73.6083 19.288 73.8243 18.808C74.3043 17.728 74.9043 16.768 75.6243 15.928C76.3683 15.064 77.0763 14.488 77.7483 14.2C78.3483 13.936 78.8043 13.792 79.1163 13.768C79.4283 13.744 79.8003 13.84 80.2323 14.056C80.7603 14.32 81.1203 14.62 81.3123 14.956C81.5043 15.268 81.5763 15.664 81.5283 16.144C81.5043 16.36 81.4563 16.624 81.3843 16.936C81.3123 17.224 81.2163 17.488 81.0963 17.728C80.9763 17.968 80.8203 18.22 80.6283 18.484C80.4363 18.748 80.2203 19.012 79.9803 19.276C79.7643 19.516 79.5363 19.744 79.2963 19.96C79.0803 20.152 78.8763 20.296 78.6843 20.392C78.3003 20.584 77.8923 20.704 77.4603 20.752C77.0523 20.776 76.6923 20.728 76.3803 20.608L75.9123 20.392L75.7323 20.896C75.6123 21.28 75.5643 21.676 75.5883 22.084C75.6123 22.492 75.6843 22.756 75.8043 22.876C75.9483 23.02 76.3083 23.092 76.8843 23.092C77.7243 23.092 78.5643 22.9 79.4043 22.516C80.2443 22.132 81.0363 21.58 81.7803 20.86C82.0443 20.596 82.3083 20.32 82.5723 20.032C82.8363 19.744 83.0163 19.54 83.1123 19.42C83.2563 19.228 83.3643 19.12 83.4363 19.096C83.5083 19.048 83.5923 19.06 83.6883 19.132ZM77.8203 17.152C77.7003 17.32 77.5443 17.536 77.3523 17.8C77.1843 18.064 77.0163 18.328 76.8483 18.592C76.6803 18.832 76.5363 19.06 76.4163 19.276C76.3203 19.468 76.2723 19.588 76.2723 19.636C76.2723 19.828 76.4763 19.912 76.8843 19.888C77.3163 19.84 77.7243 19.72 78.1083 19.528C78.3483 19.384 78.5883 19.204 78.8283 18.988C79.0683 18.748 79.2843 18.484 79.4763 18.196C79.6923 17.908 79.8723 17.608 80.0163 17.296C80.1603 16.96 80.2563 16.636 80.3043 16.324C80.3523 16.036 80.3523 15.868 80.3043 15.82C80.2803 15.772 80.1723 15.748 79.9803 15.748C79.8603 15.748 79.7043 15.796 79.5123 15.892C79.3203 15.964 79.1163 16.072 78.9003 16.216C78.7083 16.336 78.5163 16.48 78.3243 16.648C78.1323 16.816 77.9643 16.984 77.8203 17.152Z" fill="url(#paint0_linear_58_1238)"/>
<defs>
<linearGradient id="paint0_linear_58_1238" x1="40.5" y1="-2" x2="40.5" y2="42" gradientUnits="userSpaceOnUse">
<stop stop-color="#FF00C7"/>
<stop offset="1" stop-color="#FF0000"/>
</linearGradient>
</defs>
</svg>
