<svg width="40" height="40" viewBox="0 0 40 40" fill="none" xmlns="http://www.w3.org/2000/svg">
<rect x="0.5" y="0.5" width="39" height="39" rx="19.5" fill="white"/>
<g clip-path="url(#clip0_58_1348)">
<path d="M30.9884 19.7152C30.9884 18.7729 30.9135 18.0852 30.7516 17.3722H20.2191V21.6252H26.4014C26.2768 22.6822 25.6037 24.2739 24.108 25.3435L24.087 25.4859L27.4172 28.1215L27.6479 28.145C29.7668 26.1458 30.9884 23.2042 30.9884 19.7152Z" fill="#4285F4"/>
<path d="M20.2191 30.921C23.2479 30.921 25.7906 29.9022 27.6479 28.145L24.108 25.3435C23.1607 26.0184 21.8893 26.4895 20.2191 26.4895C17.2526 26.4895 14.7348 24.4904 13.8373 21.7271L13.7057 21.7386L10.243 24.4763L10.1977 24.605C12.0424 28.3487 15.8316 30.921 20.2191 30.921Z" fill="#34A853"/>
<path d="M13.8373 21.7271C13.6005 21.0141 13.4634 20.25 13.4634 19.4605C13.4634 18.671 13.6005 17.907 13.8248 17.1939L13.8185 17.042L10.3124 14.2602L10.1977 14.316C9.43739 15.8695 9.00113 17.6141 9.00113 19.4605C9.00113 21.3069 9.43739 23.0514 10.1977 24.605L13.8373 21.7271Z" fill="#FBBC05"/>
<path d="M20.2191 12.4314C22.3256 12.4314 23.7465 13.3609 24.5567 14.1378L27.7227 10.9797C25.7783 9.13332 23.2479 8 20.2191 8C15.8316 8 12.0424 10.5722 10.1977 14.316L13.8248 17.1939C14.7348 14.4306 17.2526 12.4314 20.2191 12.4314Z" fill="#EB4335"/>
</g>
<rect x="0.5" y="0.5" width="39" height="39" rx="19.5" stroke="url(#paint0_linear_58_1348)"/>
<defs>
<linearGradient id="paint0_linear_58_1348" x1="20" y1="0" x2="20" y2="40" gradientUnits="userSpaceOnUse">
<stop stop-color="#FF00D6"/>
<stop offset="1" stop-color="#FF0000"/>
</linearGradient>
<clipPath id="clip0_58_1348">
<rect width="22" height="23" fill="white" transform="translate(9 8)"/>
</clipPath>
</defs>
</svg>
