<svg width="22" height="24" viewBox="0 0 22 24" fill="none" xmlns="http://www.w3.org/2000/svg">
<path d="M20.5731 9.71858L11.8231 2.06233C11.3518 1.64996 10.6482 1.64996 10.1769 2.06233L1.42687 9.71858C1.1556 9.95594 1 10.2988 1 10.6593V21.7499C1 22.4402 1.55964 22.9999 2.25 22.9999H7.25C7.94036 22.9999 8.5 22.4402 8.5 21.7499V16.7499C8.5 16.0595 9.05964 15.4999 9.75 15.4999H12.25C12.9404 15.4999 13.5 16.0595 13.5 16.7499V21.7499C13.5 22.4402 14.0596 22.9999 14.75 22.9999H19.75C20.4404 22.9999 21 22.4402 21 21.7499V10.6593C21 10.2988 20.8444 9.95594 20.5731 9.71858Z" stroke="black" stroke-width="2" stroke-linecap="round" stroke-linejoin="round"/>
</svg>
