<svg width="14" height="14" viewBox="0 0 14 14" fill="none" xmlns="http://www.w3.org/2000/svg">
<path d="M6.41669 10.5C6.41669 10.1778 6.67785 9.91667 7.00002 9.91667C7.32219 9.91667 7.58335 10.1778 7.58335 10.5C7.58335 10.8222 7.32219 11.0833 7.00002 11.0833C6.67785 11.0833 6.41669 10.8222 6.41669 10.5Z" stroke="black" stroke-linecap="round" stroke-linejoin="round"/>
<path d="M6.41669 7.00001C6.41669 6.67784 6.67785 6.41667 7.00002 6.41667C7.32219 6.41667 7.58335 6.67784 7.58335 7.00001C7.58335 7.32217 7.32219 7.58334 7.00002 7.58334C6.67785 7.58334 6.41669 7.32217 6.41669 7.00001Z" stroke="black" stroke-linecap="round" stroke-linejoin="round"/>
<path d="M6.41669 3.50001C6.41669 3.17784 6.67785 2.91667 7.00002 2.91667C7.32219 2.91667 7.58335 3.17784 7.58335 3.50001C7.58335 3.82217 7.32219 4.08334 7.00002 4.08334C6.67785 4.08334 6.41669 3.82217 6.41669 3.50001Z" stroke="black" stroke-linecap="round" stroke-linejoin="round"/>
</svg>
