<svg width="14" height="14" viewBox="0 0 14 14" fill="none" xmlns="http://www.w3.org/2000/svg">
<path d="M2.33333 11.0833H1.16667C1.16667 9.15035 2.73367 7.58334 4.66667 7.58334C6.59966 7.58334 8.16667 9.15035 8.16667 11.0833H7C7 9.79468 5.95533 8.75001 4.66667 8.75001C3.378 8.75001 2.33333 9.79468 2.33333 11.0833ZM11.8382 9.16184L10.5 7.82426L9.16242 9.16184L8.33758 8.33701L9.67458 7.00001L8.33758 5.66243L9.16242 4.83759L10.5 6.17518L11.8376 4.83759L12.6624 5.66243L11.3248 7.00001L12.6624 8.33759L11.8382 9.16184ZM4.66667 7.00001C3.378 7.00001 2.33333 5.95534 2.33333 4.66668C2.33333 3.37801 3.378 2.33334 4.66667 2.33334C5.95533 2.33334 7 3.37801 7 4.66668C6.99839 5.95467 5.95467 6.9984 4.66667 7.00001ZM4.66667 3.50001C4.02932 3.50066 3.51044 4.01267 3.5013 4.64996C3.49217 5.28725 3.99616 5.81392 4.63324 5.83283C5.27031 5.85174 5.80465 5.35588 5.83333 4.71918V4.95251V4.66668C5.83333 4.02234 5.311 3.50001 4.66667 3.50001Z" fill="white"/>
</svg>
